# xmcd
#
# Track frame offsets: 
#        150
#        15324
#        29875
#        48854
#        67022
#        91501
#        119811
#        140638
#        161932
#        179990
#
# Disc length: 3368 seconds
#
# Revision: 0
# Processed by: cddbd v1.5.2PL0 Copyright (c) Steve Scherf et al.
# Submitted via: ExactAudioCopyFreeDBPlugin 1.0
#
DISCID=940d260a
DTITLE=Xixa - Bloodline
DYEAR=2016
DGENRE=Country
TTITLE0=Bloodline
TTITLE1=Vampiro
TTITLE2=Killer
TTITLE3=World Go Away
TTITLE4=Down From The Sky
TTITLE5=Pressures Of Mankind
TTITLE6=Golden Apparition
TTITLE7=Dead Man
TTITLE8=Nena Linda
TTITLE9=Living On The Line
EXTD=
EXTT0=
EXTT1=
EXTT2=
EXTT3=
EXTT4=
EXTT5=
EXTT6=
EXTT7=
EXTT8=
EXTT9=
PLAYORDER=
